<svg width="48" height="48" viewBox="0 0 48 48" fill="none" xmlns="http://www.w3.org/2000/svg">
<path d="M44.3079 35.0769C44.3079 36.0965 45.1344 36.9231 46.154 36.9231C47.1736 36.9231 48.0002 36.0965 48.0002 35.0769C48.0002 34.0573 47.1736 33.2308 46.154 33.2308C45.1344 33.2308 44.3079 34.0573 44.3079 35.0769Z" fill="#4BBADD"/>
<path d="M44.3079 46.1538C44.3079 47.1734 45.1344 48 46.154 48C47.1736 48 48.0002 47.1734 48.0002 46.1538C48.0002 45.1342 47.1736 44.3077 46.154 44.3077C45.1344 44.3077 44.3079 45.1342 44.3079 46.1538Z" fill="#4BBADD"/>
<path d="M33.231 12.9231C33.231 13.9427 34.0575 14.7692 35.0771 14.7692C36.0967 14.7692 36.9233 13.9427 36.9233 12.9231C36.9233 11.9035 36.0967 11.0769 35.0771 11.0769C34.0575 11.0769 33.231 11.9035 33.231 12.9231Z" fill="#4BBADD"/>
<path d="M33.231 24C33.231 25.0196 34.0575 25.8462 35.0771 25.8462C36.0967 25.8462 36.9233 25.0196 36.9233 24C36.9233 22.9804 36.0967 22.1538 35.0771 22.1538C34.0575 22.1538 33.231 22.9804 33.231 24Z" fill="#4BBADD"/>
<path d="M33.231 35.0769C33.231 36.0965 34.0575 36.9231 35.0771 36.9231C36.0967 36.9231 36.9233 36.0965 36.9233 35.0769C36.9233 34.0573 36.0967 33.2308 35.0771 33.2308C34.0575 33.2308 33.231 34.0573 33.231 35.0769Z" fill="#4BBADD"/>
<path d="M33.231 46.1538C33.231 47.1734 34.0575 48 35.0771 48C36.0967 48 36.9233 47.1734 36.9233 46.1538C36.9233 45.1342 36.0967 44.3077 35.0771 44.3077C34.0575 44.3077 33.231 45.1342 33.231 46.1538Z" fill="#4BBADD"/>
<path d="M22.154 12.9231C22.154 13.9427 22.9806 14.7692 24.0002 14.7692C25.0198 14.7692 25.8463 13.9427 25.8463 12.9231C25.8463 11.9035 25.0198 11.0769 24.0002 11.0769C22.9806 11.0769 22.154 11.9035 22.154 12.9231Z" fill="#4BBADD"/>
<path d="M22.154 24C22.154 25.0196 22.9806 25.8462 24.0002 25.8462C25.0198 25.8462 25.8463 25.0196 25.8463 24C25.8463 22.9804 25.0198 22.1538 24.0002 22.1538C22.9806 22.1538 22.154 22.9804 22.154 24Z" fill="#4BBADD"/>
<path d="M22.154 35.0769C22.154 36.0965 22.9806 36.9231 24.0002 36.9231C25.0198 36.9231 25.8463 36.0965 25.8463 35.0769C25.8463 34.0573 25.0198 33.2308 24.0002 33.2308C22.9806 33.2308 22.154 34.0573 22.154 35.0769Z" fill="#4BBADD"/>
<path d="M22.154 46.1538C22.154 47.1734 22.9806 48 24.0002 48C25.0198 48 25.8463 47.1734 25.8463 46.1538C25.8463 45.1342 25.0198 44.3077 24.0002 44.3077C22.9806 44.3077 22.154 45.1342 22.154 46.1538Z" fill="#4BBADD"/>
<path d="M11.0771 1.84615C11.0771 2.86576 11.9037 3.69231 12.9233 3.69231C13.9429 3.69231 14.7694 2.86576 14.7694 1.84615C14.7694 0.826551 13.9429 0 12.9233 0C11.9037 0 11.0771 0.826551 11.0771 1.84615Z" fill="#4BBADD"/>
<path d="M11.0771 12.9231C11.0771 13.9427 11.9037 14.7692 12.9233 14.7692C13.9429 14.7692 14.7694 13.9427 14.7694 12.9231C14.7694 11.9035 13.9429 11.0769 12.9233 11.0769C11.9037 11.0769 11.0771 11.9035 11.0771 12.9231Z" fill="#4BBADD"/>
<path d="M11.0771 24C11.0771 25.0196 11.9037 25.8462 12.9233 25.8462C13.9429 25.8462 14.7694 25.0196 14.7694 24C14.7694 22.9804 13.9429 22.1538 12.9233 22.1538C11.9037 22.1538 11.0771 22.9804 11.0771 24Z" fill="#4BBADD"/>
<path d="M11.0771 35.0769C11.0771 36.0965 11.9037 36.9231 12.9233 36.9231C13.9429 36.9231 14.7694 36.0965 14.7694 35.0769C14.7694 34.0573 13.9429 33.2308 12.9233 33.2308C11.9037 33.2308 11.0771 34.0573 11.0771 35.0769Z" fill="#4BBADD"/>
<path d="M11.0771 46.1538C11.0771 47.1734 11.9037 48 12.9233 48C13.9429 48 14.7694 47.1734 14.7694 46.1538C14.7694 45.1342 13.9429 44.3077 12.9233 44.3077C11.9037 44.3077 11.0771 45.1342 11.0771 46.1538Z" fill="#4BBADD"/>
<path d="M0.000183105 1.84615C0.000183105 2.86576 0.826734 3.69231 1.84634 3.69231C2.86594 3.69231 3.69249 2.86576 3.69249 1.84615C3.69249 0.826551 2.86594 0 1.84634 0C0.826734 0 0.000183105 0.826551 0.000183105 1.84615Z" fill="#4BBADD"/>
<path d="M0.000183105 12.9231C0.000183105 13.9427 0.826734 14.7692 1.84634 14.7692C2.86594 14.7692 3.69249 13.9427 3.69249 12.9231C3.69249 11.9035 2.86594 11.0769 1.84634 11.0769C0.826734 11.0769 0.000183105 11.9035 0.000183105 12.9231Z" fill="#4BBADD"/>
<path d="M0.000183105 24C0.000183105 25.0196 0.826734 25.8462 1.84634 25.8462C2.86594 25.8462 3.69249 25.0196 3.69249 24C3.69249 22.9804 2.86594 22.1538 1.84634 22.1538C0.826734 22.1538 0.000183105 22.9804 0.000183105 24Z" fill="#4BBADD"/>
<path d="M0.000183105 35.0769C0.000183105 36.0965 0.826734 36.9231 1.84634 36.9231C2.86594 36.9231 3.69249 36.0965 3.69249 35.0769C3.69249 34.0573 2.86594 33.2308 1.84634 33.2308C0.826734 33.2308 0.000183105 34.0573 0.000183105 35.0769Z" fill="#4BBADD"/>
<path d="M0.000183105 46.1538C0.000183105 47.1734 0.826734 48 1.84634 48C2.86594 48 3.69249 47.1734 3.69249 46.1538C3.69249 45.1342 2.86594 44.3077 1.84634 44.3077C0.826734 44.3077 0.000183105 45.1342 0.000183105 46.1538Z" fill="#4BBADD"/>
</svg>
