<svg width="59" height="59" viewBox="0 0 59 59" fill="none" xmlns="http://www.w3.org/2000/svg">
<path d="M34.167 0.115234C29.4309 0.852734 25.3401 4.15996 23.7268 8.55039C22.9201 10.7168 22.8971 10.9473 22.851 17.6539L22.7934 23.7268L22.1365 23.2773C20.3965 22.0904 18.6219 21.5258 16.5362 21.5143C13.0906 21.5027 10.1061 23.0699 8.23928 25.8586C6.9717 27.76 6.52229 29.4193 6.60295 31.8047C6.64905 33.1529 6.70667 33.5102 7.00627 34.4551C7.68616 36.5293 9.13811 38.4537 10.9012 39.6291L11.7655 40.2053L11.1547 40.5164C9.56448 41.323 7.66311 42.9824 6.74124 44.3768C5.36995 46.4164 4.7592 48.3754 4.64397 51.0719L4.57483 52.7773H5.4967H6.41858L6.48772 51.0143C6.54534 49.159 6.72971 48.2717 7.31741 46.958C8.14709 45.0682 9.94475 43.1438 11.7309 42.2449C12.0535 42.0836 12.3531 41.9453 12.3877 41.9453C12.4223 41.9453 12.4453 42.3371 12.4453 42.8211C12.4453 43.6738 12.4569 43.7199 12.8487 44.0771C13.9895 45.1604 17.6078 45.3678 19.4516 44.4689C20.3274 44.0426 20.5117 43.7314 20.5117 42.6943C20.5117 42.2795 20.5463 41.9453 20.6039 41.9453C20.65 41.9453 21.0764 42.1758 21.5489 42.4523C23.7959 43.7775 25.5129 46.0592 26.1698 48.6289C26.4002 49.5162 26.4233 49.9771 26.4694 53.3766L26.527 57.1562H16.4901H6.45315V55.8887V54.6211H5.53127H4.6094V56.8105V59H29.5H54.3907V55.8887V52.7773H53.4688H52.5469V54.9668V57.1562H40.3897H28.2324V53.5494C28.2324 51.5789 28.1748 49.6199 28.1172 49.2051C27.541 45.5867 25.2709 42.4293 21.9752 40.6201L21.1916 40.1938L21.9522 39.6752C24.5104 37.9582 26.1467 35.1465 26.3541 32.0812L26.4233 31.0211L27.1262 30.5602C28.267 29.8227 30.2836 28.8777 31.2631 28.6473C31.5627 28.5781 31.5742 28.5896 31.5742 29.0391C31.5742 29.3041 31.6549 29.6613 31.7471 29.8457C32.5998 31.4936 38.4998 31.6895 40.0785 30.1223C40.4012 29.7996 40.4473 29.6729 40.4473 29.1543C40.4473 28.5551 40.4473 28.5551 40.7699 28.6357C41.4614 28.7971 43.2129 29.5576 44.1578 30.0992C48.2256 32.4039 51.0143 36.1721 52.1666 40.9082C52.4547 42.0721 52.4662 42.2795 52.5123 46.5893L52.5699 51.0604L53.4457 51.0258L54.333 50.9912L54.3676 47.707C54.4137 43.0977 54.2293 41.3 53.4457 38.834C52.593 36.1375 51.118 33.7291 48.9285 31.4936L48.1219 30.6523H48.6635H49.2166L49.1705 20.8805C49.136 11.2584 49.136 11.1086 48.8824 10.1752C48.5137 8.76934 47.9951 7.51328 47.3729 6.46465C45.46 3.2957 42.3141 1.03711 38.7649 0.288086C37.6932 0.0576172 35.1465 -0.0345726 34.167 0.115234ZM39.0069 2.18945C42.9824 3.27266 45.9785 6.34941 47.1078 10.4748L47.4074 11.5811L47.419 20.2236V28.8662L46.6239 28.9008C45.8403 28.9354 45.7826 28.9123 44.5496 28.267C43.8467 27.9098 42.6483 27.3912 41.8877 27.1377L40.5049 26.6652L40.4703 25.6742L40.4358 24.6832L41.4037 24.0379C42.6137 23.2428 44.0311 21.7447 44.6764 20.6154C44.9414 20.143 45.3217 19.2672 45.5291 18.668C45.8633 17.7 45.9094 17.3889 45.9555 15.9484L46.0016 14.3352L45.3332 14.1854C44.0196 13.8857 43.2014 13.2635 42.5561 12.0189C42.0951 11.1547 41.8647 10.3365 41.7033 8.97676L41.5651 7.88203L40.7469 7.73223C39.825 7.58242 39.9518 7.50176 39.3065 8.64258C38.4192 10.1982 36.9096 11.5119 34.8584 12.5145C32.7612 13.5285 30.7215 14.001 27.8061 14.1393L26.1698 14.2084L26.0891 14.727C25.9739 15.4875 26.1121 17.0893 26.3887 18.1379C27.011 20.5924 28.7395 22.9201 30.8483 24.1531L31.5742 24.5795V25.6281V26.6883L30.7446 26.9303C29.5922 27.276 28.1057 27.9098 27.034 28.5205C26.4694 28.8432 26.1237 28.9699 26.1006 28.8893C25.7434 27.8406 25.3862 27.0109 25.0635 26.4693L24.6602 25.801V19.0252C24.6602 11.5004 24.6948 11.0855 25.3977 9.20723C25.9623 7.69765 26.7574 6.4416 27.8867 5.30078C29.5807 3.56074 31.4014 2.54668 33.7752 2.0166C34.9045 1.76308 37.8084 1.85527 39.0069 2.18945ZM40.3205 11.3045C40.7699 13.0561 42.0606 14.7385 43.4895 15.4414L44.2615 15.8217L44.1924 16.4094C43.766 19.8203 41.6342 22.4361 38.4537 23.4502C34.7432 24.6371 30.6178 22.9201 28.8086 19.4516C28.3131 18.5066 27.8867 17.0662 27.8867 16.3402V15.9023H28.4399C28.7395 15.9023 29.5346 15.8217 30.2145 15.7295C34.0864 15.2225 37.2668 13.7475 39.3641 11.4773C39.7328 11.074 40.0785 10.7398 40.1131 10.7283C40.1477 10.7283 40.2399 10.9818 40.3205 11.3045ZM18.933 23.6691C19.8088 23.9572 20.7537 24.4412 21.3184 24.8791L21.6065 25.1096L21.3414 25.3861C21.1916 25.5475 20.6961 25.8471 20.2467 26.0545C19.4631 26.4232 19.3479 26.4463 18.1494 26.4463C16.9971 26.4463 16.8242 26.4117 16.2365 26.1352C15.8793 25.9508 15.5106 25.7203 15.4069 25.6051C15.2455 25.4322 15.1073 25.4092 14.4735 25.4783C13.8281 25.5359 13.6899 25.6051 13.3096 25.9738C12.791 26.4924 12.1227 26.8035 11.2469 26.9072C10.5785 26.9994 9.79495 26.9072 9.79495 26.7459C9.79495 26.5154 11.1662 25.1902 11.9268 24.6717C13.4594 23.6461 14.8537 23.2543 16.7666 23.3234C17.7461 23.358 18.2301 23.4271 18.933 23.6691ZM38.7188 27.1262V29.0045L38.1772 29.1658C37.4627 29.3732 34.5819 29.3848 33.9135 29.1773L33.418 29.0275V27.1723V25.3285L33.7983 25.3977C34.628 25.5705 37.2783 25.5936 37.9698 25.4322C38.35 25.34 38.6727 25.2594 38.6957 25.2479C38.7073 25.2479 38.7188 26.0891 38.7188 27.1262ZM23.1621 26.815C23.5655 27.3221 24.1762 28.6934 24.3606 29.5C24.6141 30.5717 24.591 32.3693 24.3145 33.4641C23.7268 35.7687 22.1826 37.6586 19.9932 38.7188C18.8063 39.3064 17.8383 39.5254 16.467 39.5254C14.2084 39.5254 12.3531 38.7418 10.7168 37.1055C9.2303 35.6305 8.48127 33.9826 8.34299 31.9314C8.27385 30.9635 8.45823 29.5346 8.74631 28.7855C8.85002 28.509 8.88459 28.4859 9.29944 28.5896C9.95627 28.7395 11.6156 28.7164 12.2725 28.532C12.9293 28.3592 13.7244 27.9789 14.243 27.5756L14.6002 27.3105L15.453 27.7023C16.9164 28.3937 18.5873 28.4975 20.2237 27.9904C20.9381 27.7715 22.125 27.1146 22.5283 26.7229C22.8164 26.4348 22.8625 26.4463 23.1621 26.815ZM16.4785 41.3115C17.0201 41.3115 17.7576 41.2654 18.1264 41.2193L18.7948 41.1156L18.7602 42.026L18.7256 42.9248L18.0918 43.0746C17.3658 43.2475 14.992 43.2014 14.4965 42.9939C14.1854 42.8787 14.1739 42.8441 14.1739 42.0029V41.1271L14.8422 41.2193C15.1994 41.2654 15.9369 41.3115 16.4785 41.3115Z" fill="#3B515F"/>
<path d="M11.9845 50.8184V51.7402H12.8488H13.713V50.8184V49.8965H12.8488H11.9845V50.8184Z" fill="#3B515F"/>
<path d="M15.5566 50.8183V51.7517L16.4555 51.7171L17.3428 51.6826L17.3773 50.7837L17.4119 49.8964H16.4785H15.5566V50.8183Z" fill="#3B515F"/>
<path d="M19.152 50.7838L19.1866 51.6826H20.0508H20.9151L20.9497 50.7838L20.9842 49.8965H20.0508H19.1174L19.152 50.7838Z" fill="#3B515F"/>
</svg>
